mtllib material.mtl
o Default
v -1 2 0
v -1 2.25 -0.1875
v 0 2.25 -0.1875
v 0 2 0
v -1 1 0
v 0 2 0
v -1 2 0
v 0 1 0
v -1 0 0
v 0 1 0
v -1 1 0
v 0 0 0
v -1 -1 0.125
v 0 0 0
v -1 0 0
v 0 -1 0.125
v -1 -1.25 0.3125
v 0 -1 0.125
v -1 -1 0.125
v 0 -1.25 0.3125
v 0 -1.25 0.3125
v 1 -1 0.125
v 0 -1 0.125
v 1 -1.25 0.3125
v 0 -1 0.125
v 1 0 0
v 0 0 0
v 1 -1 0.125
v 0 0 0
v 1 1 0
v 0 1 0
v 1 0 0
v 0 1 0
v 1 2 0
v 0 2 0
v 1 1 0
v 0 2 0
v 1 2.25 -0.1875
v 0 2.25 -0.1875
v 1 2 0
v 2.0250000953674316 -1.25 -0.7749999761581421
v 1.8375000953674316 -1 -1.7750000953674316
v 1.8375000953674316 -1 -0.7749999761581421
v 2.0250000953674316 -1.25 -1.7750000953674316
v 1.8375000953674316 -1 -0.7749999761581421
v 1.7125000953674316 0 -1.7750000953674316
v 1.7125000953674316 0 -0.7749999761581421
v 1.8375000953674316 -1 -1.7750000953674316
v 1.7125000953674316 0 -0.7749999761581421
v 1.7125000953674316 1 -1.7750000953674316
v 1.7125000953674316 1 -0.7749999761581421
v 1.7125000953674316 0 -1.7750000953674316
v 1.7125000953674316 1 -0.7749999761581421
v 1.7125000953674316 2 -1.7750000953674316
v 1.7125000953674316 2 -0.7749999761581421
v 1.7125000953674316 1 -1.7750000953674316
v 1.7125000953674316 2 -0.7749999761581421
v 1.5250000953674316 2.25 -1.7750000953674316
v 1.5250000953674316 2.25 -0.7749999761581421
v 1.7125000953674316 2 -1.7750000953674316
v 1 1 0
v 1.7125000953674316 2 -0.7749999761581421
v 1 2 0
v 1.7125000953674316 1 -0.7749999761581421
v 1 2 0
v 1.5250000953674316 2.25 -0.7749999761581421
v 1 2.25 -0.1875
v 1.7125000953674316 2 -0.7749999761581421
v 1 0 0
v 1.7125000953674316 1 -0.7749999761581421
v 1 1 0
v 1.7125000953674316 0 -0.7749999761581421
v 1 -1 0.125
v 1.7125000953674316 0 -0.7749999761581421
v 1 0 0
v 1.8375000953674316 -1 -0.7749999761581421
v 1 -1.25 0.3125
v 1.8375000953674316 -1 -0.7749999761581421
v 1 -1 0.125
v 2.0250000953674316 -1.25 -0.7749999761581421
v 2.0250000953674316 -1.25 -1.7750000953674316
v 1.8375000953674316 -1 -2.7750000953674316
v 1.8375000953674316 -1 -1.7750000953674316
v 2.0250000953674316 -1.25 -2.7750000953674316
v 1.8375000953674316 -1 -1.7750000953674316
v 1.7125000953674316 0 -2.7750000953674316
v 1.7125000953674316 0 -1.7750000953674316
v 1.8375000953674316 -1 -2.7750000953674316
v 1.7125000953674316 0 -1.7750000953674316
v 1.7125000953674316 1 -2.7750000953674316
v 1.7125000953674316 1 -1.7750000953674316
v 1.7125000953674316 0 -2.7750000953674316
v 1.7125000953674316 1 -1.7750000953674316
v 1.7125000953674316 2 -2.7750000953674316
v 1.7125000953674316 2 -1.7750000953674316
v 1.7125000953674316 1 -2.7750000953674316
v 1.7125000953674316 2 -1.7750000953674316
v 1.5250000953674316 2.25 -2.7750000953674316
v 1.5250000953674316 2.25 -1.7750000953674316
v 1.7125000953674316 2 -2.7750000953674316
vt 0 0.984375
vt 0.0625 1
vt 0 1
vt 0.0625 0.984375
vt 0 0.921875
vt 0.0625 0.921875
vt 0 0.859375
vt 0.0625 0.859375
vt 0 0.796875
vt 0.0625 0.796875
vt 0 0.78125
vt 0.0625 0.78125
vn 0 0.6 0.8
vn 0 0 1
vn 0 0.12403473 0.99227788
vn 0.8 0.6 0
vn 0.99227788 0.12403473 0
vn 1 0 0
vn 0.73616756 0 0.67679932
vn 0.66700217 0.44703347 0.59604462
vn 0.6444624 0.4833468 0.59248973
vn 0.73354719 0.08429878 0.67439027
vn 0.72902277 0.09112785 0.67839628
vn 0.65190909 0.45497828 0.60663771
vn 0.63876438 0.47907329 0.60205386
g pillar
usemtl 0
f 1/1/1 3/2/1 2/3/1
f 1/1/1 4/4/1 3/2/1
f 5/5/2 6/4/2 7/1/2
f 5/5/2 8/6/2 6/4/2
f 9/7/2 10/6/2 11/5/2
f 9/7/2 12/8/2 10/6/2
f 13/9/3 14/8/3 15/7/3
f 13/9/3 16/10/3 14/8/3
f 17/11/1 18/10/1 19/9/1
f 17/11/1 20/12/1 18/10/1
f 21/11/1 22/10/1 23/9/1
f 21/11/1 24/12/1 22/10/1
f 25/9/3 26/8/3 27/7/3
f 25/9/3 28/10/3 26/8/3
f 29/7/2 30/6/2 31/5/2
f 29/7/2 32/8/2 30/6/2
f 33/5/2 34/4/2 35/1/2
f 33/5/2 36/6/2 34/4/2
f 37/1/1 38/2/1 39/3/1
f 37/1/1 40/4/1 38/2/1
f 41/11/4 42/10/4 43/9/4
f 41/11/4 44/12/4 42/10/4
f 45/9/5 46/8/5 47/7/5
f 45/9/5 48/10/5 46/8/5
f 49/7/6 50/6/6 51/5/6
f 49/7/6 52/8/6 50/6/6
f 53/5/6 54/4/6 55/1/6
f 53/5/6 56/6/6 54/4/6
f 57/1/4 58/2/4 59/3/4
f 57/1/4 60/4/4 58/2/4
f 61/5/7 62/4/7 63/1/7
f 61/5/7 64/6/7 62/4/7
f 65/1/8 66/2/8 67/3/8
f 65/1/9 68/4/9 66/2/9
f 69/7/7 70/6/7 71/5/7
f 69/7/7 72/8/7 70/6/7
f 73/9/10 74/8/10 75/7/10
f 73/9/11 76/10/11 74/8/11
f 77/11/12 78/10/12 79/9/12
f 77/11/13 80/12/13 78/10/13
f 81/11/4 82/10/4 83/9/4
f 81/11/4 84/12/4 82/10/4
f 85/9/5 86/8/5 87/7/5
f 85/9/5 88/10/5 86/8/5
f 89/7/6 90/6/6 91/5/6
f 89/7/6 92/8/6 90/6/6
f 93/5/6 94/4/6 95/1/6
f 93/5/6 96/6/6 94/4/6
f 97/1/4 98/2/4 99/3/4
f 97/1/4 100/4/4 98/2/4
